<svg width="82" height="81" viewBox="0 0 82 81" fill="none" xmlns="http://www.w3.org/2000/svg">
<g clip-path="url(#clip0_1859_2)">
<path d="M25.2 37.8C21.7172 37.8 18.6281 39.5719 16.9688 43.3922L13.05 51.9609L8.33907 40.3922L8.32969 40.3734C7.35469 38.2219 4.78594 37.2047 2.55938 38.1984C0.309383 39.2063 -0.581242 41.8688 0.431258 44.0203L7.44376 59.8313V59.8359C8.02969 61.1109 8.66251 62.1797 9.56251 62.9719C10.4672 63.7641 11.6625 64.2 12.9844 64.2C14.3859 64.2 15.6 63.7219 16.4813 62.9109C17.3672 62.1 17.9438 61.05 18.5203 59.8547L18.525 59.8453L18.5297 59.8266C18.5297 59.8266 23.3297 49.125 23.8875 47.9016C24.1313 47.3672 24.45 46.9078 24.7734 46.6172C25.1016 46.3313 25.3922 46.2 25.8 46.2C26.7938 46.2 27.6 47.0063 27.6 48V59.85C27.6 62.1844 29.4469 64.2 31.8234 64.2C34.2047 64.2 36 62.1609 36 59.85V48C36 47.0063 36.8063 46.2 37.8 46.2C38.7938 46.2 39.6 47.0063 39.6 48V60C39.6 62.3063 41.4938 64.2 43.8 64.2C46.1063 64.2 48 62.3063 48 60V48C48 47.0063 48.8063 46.2 49.8 46.2C50.7938 46.2 51.6 47.0063 51.6 48V60C51.6 62.3063 53.4938 64.2 55.8 64.2C58.1063 64.2 60 62.3063 60 60V46.6313C60 41.5031 55.7953 37.8 50.8969 37.8C47.0391 37.8 44.8359 39.6047 43.8797 40.4906C42.2813 38.9156 40.1859 37.8047 37.125 37.8047C33.9094 37.8047 32.0719 39.4922 31.1719 40.4438C29.4656 38.8406 27.2719 37.8 25.2 37.8ZM4.35001 40.1859C5.12813 40.1484 5.78438 40.5844 6.14063 41.3625L12.9188 58.0125L19.1625 44.3625L19.1672 44.3484C20.5406 41.1984 22.425 40.2 25.2 40.2C26.7797 40.2 29.1469 41.2266 30.3 42.7313L31.2422 43.9594L32.1984 42.7359C32.1984 42.7359 34.275 40.2047 37.125 40.2047C40.2047 40.2047 41.6813 41.1 42.9375 42.7313L43.8141 43.875L44.7797 42.8063C44.7797 42.8063 47.1422 40.2 50.8969 40.2C54.6281 40.2 57.6 42.7828 57.6 46.6313V60C57.6 60.9938 56.7938 61.8 55.8 61.8C54.8063 61.8 54 60.9938 54 60V48C54 45.6938 52.1063 43.8 49.8 43.8C47.4938 43.8 45.6 45.6938 45.6 48V60C45.6 60.9938 44.7938 61.8 43.8 61.8C42.8063 61.8 42 60.9938 42 60V48C42 45.6938 40.1063 43.8 37.8 43.8C35.4938 43.8 33.6 45.6938 33.6 48V59.85C33.6 61.0078 32.8875 61.8 31.8234 61.8C30.7641 61.8 30 60.9797 30 59.85V48C30 45.6938 28.1063 43.8 25.8 43.8C24.7688 43.8 23.85 44.2313 23.1797 44.8266C22.5141 45.4172 22.0547 46.1531 21.7125 46.8984C21.1031 48.225 16.3688 58.7859 16.35 58.8234C15.8203 59.9203 15.3422 60.7031 14.8594 61.1438C14.3766 61.5938 13.9172 61.8 12.9844 61.8C12.1219 61.8 11.6438 61.6031 11.1469 61.1672C10.65 60.7313 10.1438 59.9625 9.62813 58.8375L2.60626 43.0078V42.9938C2.10938 41.9531 2.44688 40.8797 3.54376 40.3922C3.82032 40.2656 4.09219 40.2 4.35001 40.1859Z" fill="#BC5205"/>
</g>
<path d="M65.2759 5C64.7088 5 64.2414 5.42358 64.2414 5.9375V6.5625H58.0345C57.4674 6.5625 57 6.98608 57 7.5V7.8125H57.1441C57.2963 8.15796 57.6008 8.4375 58.0345 8.4375H58.3793V23.4375C58.3793 24.2969 59.1552 25 60.1034 25H73.8966C74.8448 25 75.6207 24.2969 75.6207 23.4375V8.4375H75.9655C76.3992 8.4375 76.7037 8.15796 76.8559 7.8125H77V7.5C77 6.98608 76.5326 6.5625 75.9655 6.5625H69.7586V5.9375C69.7586 5.42358 69.2912 5 68.7241 5H65.2759ZM65.2759 5.625H68.7241C68.9195 5.625 69.069 5.7605 69.069 5.9375V6.5625H64.931V5.9375C64.931 5.7605 65.0805 5.625 65.2759 5.625ZM58.0345 7.1875H75.9655C76.1608 7.1875 76.3103 7.323 76.3103 7.5C76.3103 7.677 76.1608 7.8125 75.9655 7.8125H58.0345C57.8392 7.8125 57.6897 7.677 57.6897 7.5C57.6897 7.323 57.8392 7.1875 58.0345 7.1875ZM59.069 8.4375H74.931V23.4375C74.931 23.9587 74.4717 24.375 73.8966 24.375H60.1034C59.5283 24.375 59.069 23.9587 59.069 23.4375V8.4375ZM60.7931 9.6875C60.6032 9.6875 60.4483 9.82788 60.4483 10C60.4483 10.1721 60.6032 10.3125 60.7931 10.3125C60.983 10.3125 61.1379 10.1721 61.1379 10C61.1379 9.82788 60.983 9.6875 60.7931 9.6875ZM63.8966 9.6875C63.7066 9.6875 63.5517 9.82788 63.5517 10C63.5517 10.1721 63.7066 10.3125 63.8966 10.3125C64.0865 10.3125 64.2414 10.1721 64.2414 10C64.2414 9.82788 64.0865 9.6875 63.8966 9.6875ZM70.1034 9.6875C69.9135 9.6875 69.7586 9.82788 69.7586 10C69.7586 10.1721 69.9135 10.3125 70.1034 10.3125C70.2934 10.3125 70.4483 10.1721 70.4483 10C70.4483 9.82788 70.2934 9.6875 70.1034 9.6875ZM73.2069 9.6875C73.017 9.6875 72.8621 9.82788 72.8621 10C72.8621 10.1721 73.017 10.3125 73.2069 10.3125C73.3968 10.3125 73.5517 10.1721 73.5517 10C73.5517 9.82788 73.3968 9.6875 73.2069 9.6875ZM60.7931 10.9375C60.6032 10.9375 60.4483 11.0779 60.4483 11.25C60.4483 11.4221 60.6032 11.5625 60.7931 11.5625C60.983 11.5625 61.1379 11.4221 61.1379 11.25C61.1379 11.0779 60.983 10.9375 60.7931 10.9375ZM63.8966 10.9375C63.7066 10.9375 63.5517 11.0779 63.5517 11.25C63.5517 11.4221 63.7066 11.5625 63.8966 11.5625C64.0865 11.5625 64.2414 11.4221 64.2414 11.25C64.2414 11.0779 64.0865 10.9375 63.8966 10.9375ZM70.1034 10.9375C69.9135 10.9375 69.7586 11.0779 69.7586 11.25C69.7586 11.4221 69.9135 11.5625 70.1034 11.5625C70.2934 11.5625 70.4483 11.4221 70.4483 11.25C70.4483 11.0779 70.2934 10.9375 70.1034 10.9375ZM73.2069 10.9375C73.017 10.9375 72.8621 11.0779 72.8621 11.25C72.8621 11.4221 73.017 11.5625 73.2069 11.5625C73.3968 11.5625 73.5517 11.4221 73.5517 11.25C73.5517 11.0779 73.3968 10.9375 73.2069 10.9375ZM60.7931 12.1875C60.6032 12.1875 60.4483 12.3279 60.4483 12.5C60.4483 12.6721 60.6032 12.8125 60.7931 12.8125C60.983 12.8125 61.1379 12.6721 61.1379 12.5C61.1379 12.3279 60.983 12.1875 60.7931 12.1875ZM63.8966 12.1875C63.7066 12.1875 63.5517 12.3279 63.5517 12.5C63.5517 12.6721 63.7066 12.8125 63.8966 12.8125C64.0865 12.8125 64.2414 12.6721 64.2414 12.5C64.2414 12.3279 64.0865 12.1875 63.8966 12.1875ZM70.1034 12.1875C69.9135 12.1875 69.7586 12.3279 69.7586 12.5C69.7586 12.6721 69.9135 12.8125 70.1034 12.8125C70.2934 12.8125 70.4483 12.6721 70.4483 12.5C70.4483 12.3279 70.2934 12.1875 70.1034 12.1875ZM73.2069 12.1875C73.017 12.1875 72.8621 12.3279 72.8621 12.5C72.8621 12.6721 73.017 12.8125 73.2069 12.8125C73.3968 12.8125 73.5517 12.6721 73.5517 12.5C73.5517 12.3279 73.3968 12.1875 73.2069 12.1875ZM60.7931 13.4375C60.6032 13.4375 60.4483 13.5779 60.4483 13.75C60.4483 13.9221 60.6032 14.0625 60.7931 14.0625C60.983 14.0625 61.1379 13.9221 61.1379 13.75C61.1379 13.5779 60.983 13.4375 60.7931 13.4375ZM63.8966 13.4375C63.7066 13.4375 63.5517 13.5779 63.5517 13.75C63.5517 13.9221 63.7066 14.0625 63.8966 14.0625C64.0865 14.0625 64.2414 13.9221 64.2414 13.75C64.2414 13.5779 64.0865 13.4375 63.8966 13.4375ZM70.1034 13.4375C69.9135 13.4375 69.7586 13.5779 69.7586 13.75C69.7586 13.9221 69.9135 14.0625 70.1034 14.0625C70.2934 14.0625 70.4483 13.9221 70.4483 13.75C70.4483 13.5779 70.2934 13.4375 70.1034 13.4375ZM73.2069 13.4375C73.017 13.4375 72.8621 13.5779 72.8621 13.75C72.8621 13.9221 73.017 14.0625 73.2069 14.0625C73.3968 14.0625 73.5517 13.9221 73.5517 13.75C73.5517 13.5779 73.3968 13.4375 73.2069 13.4375ZM60.7931 14.6875C60.6032 14.6875 60.4483 14.8279 60.4483 15C60.4483 15.1721 60.6032 15.3125 60.7931 15.3125C60.983 15.3125 61.1379 15.1721 61.1379 15C61.1379 14.8279 60.983 14.6875 60.7931 14.6875ZM63.8966 14.6875C63.7066 14.6875 63.5517 14.8279 63.5517 15C63.5517 15.1721 63.7066 15.3125 63.8966 15.3125C64.0865 15.3125 64.2414 15.1721 64.2414 15C64.2414 14.8279 64.0865 14.6875 63.8966 14.6875ZM70.1034 14.6875C69.9135 14.6875 69.7586 14.8279 69.7586 15C69.7586 15.1721 69.9135 15.3125 70.1034 15.3125C70.2934 15.3125 70.4483 15.1721 70.4483 15C70.4483 14.8279 70.2934 14.6875 70.1034 14.6875ZM73.2069 14.6875C73.017 14.6875 72.8621 14.8279 72.8621 15C72.8621 15.1721 73.017 15.3125 73.2069 15.3125C73.3968 15.3125 73.5517 15.1721 73.5517 15C73.5517 14.8279 73.3968 14.6875 73.2069 14.6875ZM60.7931 15.9375C60.6032 15.9375 60.4483 16.0779 60.4483 16.25C60.4483 16.4221 60.6032 16.5625 60.7931 16.5625C60.983 16.5625 61.1379 16.4221 61.1379 16.25C61.1379 16.0779 60.983 15.9375 60.7931 15.9375ZM63.8966 15.9375C63.7066 15.9375 63.5517 16.0779 63.5517 16.25C63.5517 16.4221 63.7066 16.5625 63.8966 16.5625C64.0865 16.5625 64.2414 16.4221 64.2414 16.25C64.2414 16.0779 64.0865 15.9375 63.8966 15.9375ZM70.1034 15.9375C69.9135 15.9375 69.7586 16.0779 69.7586 16.25C69.7586 16.4221 69.9135 16.5625 70.1034 16.5625C70.2934 16.5625 70.4483 16.4221 70.4483 16.25C70.4483 16.0779 70.2934 15.9375 70.1034 15.9375ZM73.2069 15.9375C73.017 15.9375 72.8621 16.0779 72.8621 16.25C72.8621 16.4221 73.017 16.5625 73.2069 16.5625C73.3968 16.5625 73.5517 16.4221 73.5517 16.25C73.5517 16.0779 73.3968 15.9375 73.2069 15.9375ZM60.7931 17.1875C60.6032 17.1875 60.4483 17.3279 60.4483 17.5C60.4483 17.6721 60.6032 17.8125 60.7931 17.8125C60.983 17.8125 61.1379 17.6721 61.1379 17.5C61.1379 17.3279 60.983 17.1875 60.7931 17.1875ZM63.8966 17.1875C63.7066 17.1875 63.5517 17.3279 63.5517 17.5C63.5517 17.6721 63.7066 17.8125 63.8966 17.8125C64.0865 17.8125 64.2414 17.6721 64.2414 17.5C64.2414 17.3279 64.0865 17.1875 63.8966 17.1875ZM70.1034 17.1875C69.9135 17.1875 69.7586 17.3279 69.7586 17.5C69.7586 17.6721 69.9135 17.8125 70.1034 17.8125C70.2934 17.8125 70.4483 17.6721 70.4483 17.5C70.4483 17.3279 70.2934 17.1875 70.1034 17.1875ZM73.2069 17.1875C73.017 17.1875 72.8621 17.3279 72.8621 17.5C72.8621 17.6721 73.017 17.8125 73.2069 17.8125C73.3968 17.8125 73.5517 17.6721 73.5517 17.5C73.5517 17.3279 73.3968 17.1875 73.2069 17.1875ZM60.7931 18.4375C60.6032 18.4375 60.4483 18.5779 60.4483 18.75C60.4483 18.9221 60.6032 19.0625 60.7931 19.0625C60.983 19.0625 61.1379 18.9221 61.1379 18.75C61.1379 18.5779 60.983 18.4375 60.7931 18.4375ZM63.8966 18.4375C63.7066 18.4375 63.5517 18.5779 63.5517 18.75C63.5517 18.9221 63.7066 19.0625 63.8966 19.0625C64.0865 19.0625 64.2414 18.9221 64.2414 18.75C64.2414 18.5779 64.0865 18.4375 63.8966 18.4375ZM70.1034 18.4375C69.9135 18.4375 69.7586 18.5779 69.7586 18.75C69.7586 18.9221 69.9135 19.0625 70.1034 19.0625C70.2934 19.0625 70.4483 18.9221 70.4483 18.75C70.4483 18.5779 70.2934 18.4375 70.1034 18.4375ZM73.2069 18.4375C73.017 18.4375 72.8621 18.5779 72.8621 18.75C72.8621 18.9221 73.017 19.0625 73.2069 19.0625C73.3968 19.0625 73.5517 18.9221 73.5517 18.75C73.5517 18.5779 73.3968 18.4375 73.2069 18.4375ZM60.7931 19.6875C60.6032 19.6875 60.4483 19.8279 60.4483 20C60.4483 20.1721 60.6032 20.3125 60.7931 20.3125C60.983 20.3125 61.1379 20.1721 61.1379 20C61.1379 19.8279 60.983 19.6875 60.7931 19.6875ZM63.8966 19.6875C63.7066 19.6875 63.5517 19.8279 63.5517 20C63.5517 20.1721 63.7066 20.3125 63.8966 20.3125C64.0865 20.3125 64.2414 20.1721 64.2414 20C64.2414 19.8279 64.0865 19.6875 63.8966 19.6875ZM70.1034 19.6875C69.9135 19.6875 69.7586 19.8279 69.7586 20C69.7586 20.1721 69.9135 20.3125 70.1034 20.3125C70.2934 20.3125 70.4483 20.1721 70.4483 20C70.4483 19.8279 70.2934 19.6875 70.1034 19.6875ZM73.2069 19.6875C73.017 19.6875 72.8621 19.8279 72.8621 20C72.8621 20.1721 73.017 20.3125 73.2069 20.3125C73.3968 20.3125 73.5517 20.1721 73.5517 20C73.5517 19.8279 73.3968 19.6875 73.2069 19.6875ZM60.7931 20.9375C60.6032 20.9375 60.4483 21.0779 60.4483 21.25C60.4483 21.4221 60.6032 21.5625 60.7931 21.5625C60.983 21.5625 61.1379 21.4221 61.1379 21.25C61.1379 21.0779 60.983 20.9375 60.7931 20.9375ZM63.8966 20.9375C63.7066 20.9375 63.5517 21.0779 63.5517 21.25C63.5517 21.4221 63.7066 21.5625 63.8966 21.5625C64.0865 21.5625 64.2414 21.4221 64.2414 21.25C64.2414 21.0779 64.0865 20.9375 63.8966 20.9375ZM70.1034 20.9375C69.9135 20.9375 69.7586 21.0779 69.7586 21.25C69.7586 21.4221 69.9135 21.5625 70.1034 21.5625C70.2934 21.5625 70.4483 21.4221 70.4483 21.25C70.4483 21.0779 70.2934 20.9375 70.1034 20.9375ZM73.2069 20.9375C73.017 20.9375 72.8621 21.0779 72.8621 21.25C72.8621 21.4221 73.017 21.5625 73.2069 21.5625C73.3968 21.5625 73.5517 21.4221 73.5517 21.25C73.5517 21.0779 73.3968 20.9375 73.2069 20.9375ZM60.7931 22.1875C60.6032 22.1875 60.4483 22.3279 60.4483 22.5C60.4483 22.6721 60.6032 22.8125 60.7931 22.8125C60.983 22.8125 61.1379 22.6721 61.1379 22.5C61.1379 22.3279 60.983 22.1875 60.7931 22.1875ZM63.8966 22.1875C63.7066 22.1875 63.5517 22.3279 63.5517 22.5C63.5517 22.6721 63.7066 22.8125 63.8966 22.8125C64.0865 22.8125 64.2414 22.6721 64.2414 22.5C64.2414 22.3279 64.0865 22.1875 63.8966 22.1875ZM70.1034 22.1875C69.9135 22.1875 69.7586 22.3279 69.7586 22.5C69.7586 22.6721 69.9135 22.8125 70.1034 22.8125C70.2934 22.8125 70.4483 22.6721 70.4483 22.5C70.4483 22.3279 70.2934 22.1875 70.1034 22.1875ZM73.2069 22.1875C73.017 22.1875 72.8621 22.3279 72.8621 22.5C72.8621 22.6721 73.017 22.8125 73.2069 22.8125C73.3968 22.8125 73.5517 22.6721 73.5517 22.5C73.5517 22.3279 73.3968 22.1875 73.2069 22.1875Z" fill="#EB1111"/>
<defs>
<clipPath id="clip0_1859_2">
<rect width="60" height="60" fill="white" transform="translate(0 21)"/>
</clipPath>
</defs>
</svg>
