<svg width="50" height="50" viewBox="0 0 50 50" fill="none" xmlns="http://www.w3.org/2000/svg">
<g clip-path="url(#clip0_1858_20)">
<path d="M46.4474 0.604253C46.1286 0.592025 45.8098 0.627774 45.5017 0.710302L34.3443 3.69912C33.8211 3.84006 33.3426 4.11219 32.954 4.48975C32.5654 4.8673 32.2796 5.33779 32.1236 5.85667C31.9677 6.37555 31.9467 6.92564 32.0628 7.45488C32.1788 7.98412 32.428 8.47498 32.7867 8.881C32.2845 8.79906 31.7767 8.75639 31.2679 8.7534H10.3559C7.73978 8.75648 5.23167 9.79715 3.38184 11.6471C1.53201 13.4971 0.491521 16.0053 0.488647 18.6214V20.5532C0.488676 20.7086 0.550421 20.8576 0.660302 20.9675C0.770184 21.0773 0.919203 21.139 1.07458 21.139C1.22997 21.139 1.37899 21.0773 1.48887 20.9675C1.59875 20.8576 1.66049 20.7086 1.66052 20.5532V18.6214C1.66304 16.316 2.57994 14.1057 4.21008 12.4754C5.84022 10.8451 8.05047 9.92799 10.3559 9.92528H31.2679C32.3381 9.92316 33.3994 10.1202 34.3975 10.5064L34.5049 10.6136L32.2435 12.8752L27.7206 17.3981C27.7053 17.414 27.6901 17.43 27.675 17.4461C27.6568 17.4651 27.6387 17.4842 27.6209 17.5036C27.5635 17.5675 27.5085 17.6334 27.4559 17.7013C27.4339 17.7277 27.4124 17.7544 27.3912 17.7815C27.3366 17.8556 27.285 17.9319 27.2364 18.0101C27.2231 18.03 27.2101 18.0499 27.1973 18.07C27.1452 18.1571 27.097 18.2463 27.0527 18.3374C27.0457 18.3506 27.0389 18.3637 27.0321 18.3769C26.983 18.4803 26.9389 18.5859 26.9001 18.6935C26.8997 18.6944 26.8993 18.6953 26.8989 18.6962C26.7067 19.229 26.6456 19.8002 26.7206 20.3616C26.7956 20.923 27.0046 21.4582 27.33 21.9218C27.6553 22.3854 28.0875 22.7639 28.5899 23.0254C29.0924 23.2868 29.6504 23.4235 30.2168 23.424C31.1395 23.4259 32.0259 23.064 32.6835 22.4167C32.6933 22.408 32.7029 22.3992 32.7125 22.3904L32.7127 22.39L39.4449 15.658C39.7893 16.608 39.9648 17.611 39.9633 18.6214V39.5327C39.9608 41.8381 39.0439 44.0485 37.4138 45.6787C35.7836 47.309 33.5734 48.2261 31.2679 48.2288H10.3559C8.05047 48.2261 5.84021 47.309 4.21007 45.6787C2.57993 44.0485 1.66303 41.8381 1.66052 39.5327V25.1234C1.66049 24.968 1.59875 24.819 1.48887 24.7092C1.37899 24.5993 1.22997 24.5376 1.07458 24.5376C0.919203 24.5376 0.770184 24.5993 0.660302 24.7092C0.550421 24.819 0.488676 24.968 0.488647 25.1234V39.5327C0.491497 42.1488 1.53197 44.657 3.38181 46.507C5.23165 48.357 7.73977 49.3977 10.3559 49.4007H31.2679C33.8841 49.3977 36.3922 48.357 38.242 46.507C40.0919 44.657 41.1323 42.1488 41.1352 39.5327V18.6214C41.1325 18.1185 41.0912 17.6164 41.0116 17.1198L41.0856 17.1938C41.4808 17.589 41.973 17.8731 42.5128 18.0178C43.0525 18.1624 43.6209 18.1624 44.1607 18.0177C44.7005 17.8731 45.1927 17.5889 45.5878 17.1937C45.9829 16.7985 46.2671 16.3063 46.4117 15.7665L49.4005 4.60911C49.5242 4.1474 49.5423 3.66376 49.4535 3.19409C49.3647 2.72442 49.1713 2.28077 48.8876 1.89606C48.604 1.51135 48.2373 1.19546 47.8148 0.971828C47.3924 0.748196 46.925 0.622564 46.4474 0.604253ZM46.3346 1.77193C46.6424 1.77379 46.9457 1.84615 47.2211 1.98348C47.4966 2.1208 47.7369 2.31943 47.9237 2.5641C48.1104 2.80878 48.2386 3.093 48.2984 3.39493C48.3581 3.69686 48.3479 4.00848 48.2685 4.30584L45.2797 15.4633C45.1883 15.8044 45.0088 16.1154 44.7591 16.3651C44.5094 16.6149 44.1984 16.7945 43.8573 16.8859C43.5162 16.9773 43.1571 16.9773 42.816 16.8859C42.4749 16.7945 42.1639 16.6149 41.9142 16.3652L40.3023 14.7533C40.3004 14.7513 40.2986 14.7493 40.2967 14.7472L39.912 14.3625C39.8446 14.2951 39.7617 14.2451 39.6706 14.217C39.5795 14.1888 39.4829 14.1833 39.3892 14.201C39.3702 14.2046 39.3513 14.2091 39.3328 14.2145C39.3326 14.2146 39.3325 14.2146 39.3324 14.2147C39.3138 14.2202 39.2954 14.2265 39.2774 14.2338C39.2773 14.2338 39.2772 14.2339 39.2771 14.234C39.2759 14.2345 39.2746 14.2351 39.2734 14.2357C39.2386 14.25 39.2053 14.2676 39.1739 14.2883C39.1737 14.2884 39.1736 14.2885 39.1735 14.2885C39.1574 14.2993 39.1418 14.3108 39.1268 14.323C39.1266 14.3231 39.1265 14.3232 39.1264 14.3232C39.1112 14.3356 39.0967 14.3487 39.0829 14.3625L31.884 21.5614C31.4505 21.9936 30.8659 22.2403 30.2538 22.2492C29.6417 22.2582 29.0501 22.0288 28.6041 21.6095C28.604 21.6094 28.604 21.6094 28.6039 21.6093C28.6019 21.6072 28.5998 21.6051 28.5978 21.603C28.5428 21.5511 28.4904 21.4965 28.4407 21.4396C28.389 21.3803 28.3404 21.3185 28.2949 21.2544C28.2949 21.2543 28.2949 21.2542 28.2949 21.2542C28.2496 21.1901 28.2074 21.1237 28.1687 21.0554C28.1686 21.0554 28.1685 21.0553 28.1685 21.0552C28.1303 20.9879 28.0955 20.9188 28.0641 20.8481C28.0636 20.8471 28.0631 20.8461 28.0626 20.845C28.0309 20.7731 28.0027 20.6997 27.9783 20.6249C27.9539 20.5502 27.9332 20.4743 27.9163 20.3976C27.8316 20.0117 27.8452 19.6108 27.9558 19.2315C28.0665 18.8523 28.2706 18.507 28.5496 18.2272L34.5482 12.2278L35.7479 11.0279H35.7481C35.7716 11.0043 35.793 10.9788 35.8122 10.9516C35.8123 10.9515 35.8124 10.9514 35.8126 10.9512C35.8922 10.8384 35.9294 10.701 35.9176 10.5634C35.9058 10.4258 35.8458 10.2968 35.7481 10.1992L33.7456 8.19665C33.4959 7.94695 33.3163 7.63592 33.2249 7.29482C33.1335 6.95372 33.1335 6.59458 33.2249 6.25348C33.3163 5.91239 33.4959 5.60138 33.7457 5.3517C33.9954 5.10202 34.3064 4.92248 34.6475 4.83113L45.805 1.84231C45.9777 1.79579 46.1558 1.77213 46.3346 1.77193ZM1.09175 21.8132C1.0134 21.8109 0.935393 21.8244 0.862336 21.8527C0.789279 21.8811 0.722661 21.9239 0.666426 21.9785C0.61019 22.0331 0.565481 22.0984 0.534944 22.1706C0.504408 22.2428 0.488665 22.3204 0.488647 22.3988V23.2777C0.488647 23.4331 0.55038 23.5821 0.660265 23.692C0.770149 23.8019 0.919185 23.8636 1.07458 23.8636C1.22999 23.8636 1.37902 23.8019 1.48891 23.692C1.59879 23.5821 1.66052 23.4331 1.66052 23.2777V22.3988C1.66049 22.2464 1.60107 22.1 1.49489 21.9906C1.3887 21.8813 1.24409 21.8177 1.09175 21.8132Z" fill="#BC5205"/>
</g>
<defs>
<clipPath id="clip0_1858_20">
<rect width="50" height="50" fill="white"/>
</clipPath>
</defs>
</svg>
