<svg width="256" height="256" viewBox="22 22 84 76" xmlns="http://www.w3.org/2000/svg">
  <!-- Router -->
  <g fill="none" stroke="#3B82F6" stroke-width="4" stroke-linecap="round" stroke-linejoin="round">

    <!-- Antennas -->
    <line x1="40" y1="26" x2="40" y2="58"/>
    <line x1="88" y1="26" x2="88" y2="58"/>

    <!-- Router body -->
    <rect x="24" y="58" width="80" height="32" rx="8"/>

    <!-- Power button -->
    <circle cx="38" cy="74" r="4"/>

    <!-- Status LEDs -->
    <rect x="62" y="72" width="2" height="2"/>
    <rect x="72" y="72" width="2" height="2"/>
    <rect x="82" y="72" width="2" height="2"/>

    <!-- Feet -->
    <line x1="38" y1="90" x2="38" y2="96"/>
    <line x1="50" y1="90" x2="50" y2="96"/>
    <line x1="78" y1="90" x2="78" y2="96"/>
    <line x1="90" y1="90" x2="90" y2="96"/>

    <!-- WiFi -->
    <path d="M52 46 Q64 34 76 46"/>
    <path d="M58 54 Q64 48 70 54"/>
    <circle cx="64" cy="60" r="1.5" fill="#3B82F6"/>
  </g>
</svg>